# xmcd CD database file
#
# Track frame offsets:
#	150
#	18524
#	37577
#	55947
#	69417
#	85713
#	100346
#	115919
#	129061
#	141333
#	153531
#	165672
#	178758
#	190831
#	205482
#	215278
#
# Disc length: 2989 seconds
#
# Revision: 2
# Processed by: cddbd v1.5.2PL0 Copyright (c) Steve Scherf et al.
# Submitted via: CDex 1.70beta2
#
DISCID=d60bab10
DTITLE=Herbie Mann - The Ultimate Jazz Archive Set 26
DYEAR=2005
DGENRE=Jazz
TTITLE0=Between The Devil And The Deep Blue Sea
TTITLE1=Things We Did Last Summer
TTITLE2=After Work
TTITLE3=Chicken Littler
TTITLE4=Deep Night
TTITLE5=Cuban Love Song
TTITLE6=Moon Dreams
TTITLE7=Scuffles
TTITLE8=Purple Grotto
TTITLE9=A Spring Morning
TTITLE10=My Little Suede Shoes
TTITLE11=Autumn Nocturne
TTITLE12=Why Doi Love You
TTITLE13=It Might As Well Be Spring
TTITLE14=Woodchuck
TTITLE15=Love Is A Simple Thing
EXTD=YEAR: 2005
EXTT0=
EXTT1=
EXTT2=
EXTT3=
EXTT4=
EXTT5=
EXTT6=
EXTT7=
EXTT8=
EXTT9=
EXTT10=
EXTT11=
EXTT12=
EXTT13=
EXTT14=
EXTT15=
PLAYORDER=
